<svg xmlns="http://www.w3.org/2000/svg" xmlns:xlink="http://www.w3.org/1999/xlink" viewBox="0 0 65 33" fill="#fff" fill-rule="evenodd" stroke="#000" stroke-linecap="round" stroke-linejoin="round" width="300" height="300" font-family="Roboto" font-size="14px" text-anchor="middle"><use xlink:href="#B" x=".5" y=".5"></use><defs><style type="text/css"></style><linearGradient id="A" x1="49.50%" y1="0.32%" x2="49.50%" y2="101.24%"><stop offset="0%" stop-color="#00b8f1"></stop><stop offset="22%" stop-color="#06a5e5"></stop><stop offset="79%" stop-color="#1870c5"></stop><stop offset="100%" stop-color="#1d61bc"></stop></linearGradient></defs><symbol id="B" overflow="visible"><g stroke="none" fill-rule="nonzero"><path d="M0 0v31.663h32.343L64 .004H0z" fill="url(#A)"></path><path d="M39.04 14.735H37.7V9.803h1.35c1.802 0 3.237.593 3.237 2.436 0 1.903-1.435 2.498-3.237 2.498m-14.53 3.53a5.59 5.59 0 0 1-1.963-.346l1.944-6.13h.04l1.905 6.15a5.74 5.74 0 0 1-1.924.33m14.17-12.476H32.55v14.58l-5.356-14.58H21.9L17.316 17.98c-.484-3.068-3.664-4.133-6.166-4.928-1.648-.53-3.404-1.3-3.388-2.173.014-.706.943-1.36 2.774-1.264 1.234.062 2.333.16 4.485 1.207l2.138-3.7c-1.973-1.007-4.706-1.64-6.944-1.645h-.02c-2.6 0-4.782.85-6.13 2.243a5.19 5.19 0 0 0-1.468 3.577c-.035 1.878.657 3.2 2.105 4.277 1.225.898 2.788 1.475 4.168 1.9 1.703.523 3.093.984 3.077 1.963a1.42 1.42 0 0 1-.404.953c-.424.437-1.075.605-1.977.626-1.738.035-3.025-.235-5.078-1.448L2.6 23.325c2.114 1.2 4.503 1.836 6.934 1.845h.32c2.15-.04 3.888-.655 5.276-1.77l.225-.194-.607 1.64h5.565l.935-2.844a10.63 10.63 0 0 0 6.467.027l.9 2.82h9.08V18.97h1.983c4.786 0 7.62-2.436 7.62-6.524 0-4.55-2.755-6.64-8.612-6.64"></path></g></symbol></svg>