<?xml version="1.0" encoding="utf-8"?>
<!-- Generator: Adobe Illustrator 22.1.0, SVG Export Plug-In . SVG Version: 6.00 Build 0)  -->
<svg version="1.1" id="Ebene_2" xmlns="http://www.w3.org/2000/svg" xmlns:xlink="http://www.w3.org/1999/xlink" x="0px" y="0px"
	 viewBox="0 0 56.7 56.7" style="enable-background:new 0 0 56.7 56.7;" xml:space="preserve">
<style type="text/css">
	.st0{fill:#EDECEC;}
	.st1{fill:#D9D9D9;}
	.st2{fill:#F5F5F5;}
	.st3{fill:#EA6417;}
	.st4{fill:#F8AF3C;}
	.st5{fill:#E99930;}
	.st6{fill:#7AE2FF;}
	.st7{opacity:0.28;}
	.st8{fill:#00AEDD;}
	.st9{fill-rule:evenodd;clip-rule:evenodd;fill:#FFFFFF;}
	.st10{fill:#F7931E;}
	.st11{fill:#FBB03B;}
	.st12{fill:#F6F6F6;}
	.st13{fill:none;stroke:#EB661B;stroke-width:1.35;stroke-linecap:round;stroke-miterlimit:10;}
	.st14{fill:#575756;}
	.st15{fill:#00648C;}
	.st16{fill:#DADADA;}
	.st17{fill:#F6C63D;}
	.st18{fill:#EB6417;}
	.st19{fill:#DD551F;}
	.st20{fill:#F16521;}
</style>
<g>
	<g>
		<g>
			<g>
				<circle class="st6" cx="19.6" cy="24.4" r="7.1"/>
				<circle class="st6" cx="14.1" cy="32.3" r="7.1"/>
				<circle class="st6" cx="29.9" cy="25.5" r="8.8"/>
				<circle class="st6" cx="35" cy="27.3" r="9.2"/>
				<circle class="st6" cx="42.9" cy="34.2" r="7.2"/>
			</g>
			<g class="st7">
				<circle class="st8" cx="19.6" cy="24.4" r="7.1"/>
				<circle class="st8" cx="14.1" cy="32.3" r="7.1"/>
				<circle class="st8" cx="29.9" cy="25.5" r="8.8"/>
				<circle class="st8" cx="35" cy="27.3" r="9.2"/>
				<circle class="st8" cx="42.9" cy="34.2" r="7.2"/>
			</g>
		</g>
		<path class="st6" d="M44.6,34c0.3-0.7,0.4-1.5,0.4-2.3c0-3.4-2.8-6.2-6.2-6.2c-0.5,0-1,0.1-1.5,0.2c0.2-0.7,0.3-1.5,0.3-2.4
			c0-4.5-3.6-8.1-8.1-8.1c-3.6,0-6.7,2.4-7.7,5.6c-0.9-1-2.3-1.6-3.7-1.6c-2.9,0-5.2,2.3-5.2,5.2c0,0.4,0,0.8,0.1,1.2
			c-3.7,0.7-6.5,4-6.5,7.8c0,4.4,3.6,8,8,8s27.1,0,29.1,0c2.1,0,3.8-1.7,3.8-3.8C47.5,35.9,46.3,34.4,44.6,34z"/>
	</g>
	<path class="st9" d="M33.4,26.4l-2.8,0v6.7l-2.5-6.7h-2.5L23.5,32c-0.2-1.4-1.7-1.9-2.8-2.3c-0.8-0.2-1.6-0.6-1.6-1
		c0-0.3,0.4-0.6,1.3-0.6c0.6,0,1.1,0.1,2.1,0.6l1-1.7c-0.9-0.5-2.2-0.8-3.2-0.8h0c-1.2,0-2.2,0.4-2.8,1c-0.4,0.4-0.7,1-0.7,1.7
		c0,0.9,0.3,1.5,1,2c0.6,0.4,1.3,0.7,1.9,0.9c0.8,0.2,1.4,0.5,1.4,0.9c0,0.2-0.1,0.3-0.2,0.4c-0.2,0.2-0.5,0.3-0.9,0.3
		c-0.8,0-1.4-0.1-2.3-0.7l-0.9,1.7c0.9,0.5,2.1,0.9,3.2,0.9l0.1,0c1,0,1.8-0.3,2.4-0.8c0,0,0.1-0.1,0.1-0.1l-0.3,0.8h2.6l0.4-1.3
		c0.5,0.2,1,0.2,1.5,0.2c0.5,0,1-0.1,1.5-0.2l0.4,1.3h4.2v-2.7h0.9c2.2,0,3.5-1.1,3.5-3C37.4,27.3,36.1,26.4,33.4,26.4 M26.9,32.1
		c-0.3,0-0.6-0.1-0.9-0.2l0.9-2.8h0l0.9,2.8C27.5,32.1,27.2,32.1,26.9,32.1 M33.6,30.5h-0.6v-2.3h0.6c0.8,0,1.5,0.3,1.5,1.1
		C35.1,30.2,34.4,30.5,33.6,30.5"/>
</g>
</svg>
